HIERARCHY
ROOT hip
{
  OFFSET 0 0 0
  CHANNELS 6 Xposition Yposition Zposition Zrotation Yrotation Xrotation
  JOINT abdomen
  {
    OFFSET 0 20.6881 -0.73152
    CHANNELS 3 Zrotation Xrotation Yrotation
    JOINT chest
    {
      OFFSET 0 11.7043 -0.48768
      CHANNELS 3 Zrotation Xrotation Yrotation
      JOINT neck
      {
        OFFSET 0 22.1894 -2.19456
        CHANNELS 3 Zrotation Xrotation Yrotation
        JOINT head
        {
          OFFSET -0.24384 7.07133 1.2192
          CHANNELS 3 Zrotation Xrotation Yrotation
          JOINT leftEye
          {
            OFFSET 4.14528 8.04674 8.04672
            CHANNELS 3 Zrotation Xrotation Yrotation
            End Site
            {
              OFFSET 1 0 0
            }
          }
          JOINT rightEye
          {
            OFFSET -3.6576 8.04674 8.04672
            CHANNELS 3 Zrotation Xrotation Yrotation
            End Site
            {
              OFFSET 1 0 0
            }
          }
        }
      }
      JOINT rCollar
      {
        OFFSET -2.68224 19.2634 -4.8768
        CHANNELS 3 Zrotation Xrotation Yrotation
        JOINT rShldr
        {
          OFFSET -8.77824 -1.95073 1.46304
          CHANNELS 3 Zrotation Xrotation Yrotation
          JOINT rForeArm
          {
            OFFSET -28.1742 -1.7115 0.48768
            CHANNELS 3 Zrotation Xrotation Yrotation
            JOINT rHand
            {
              OFFSET -22.5879 0.773209 7.07136
              CHANNELS 3 Zrotation Xrotation Yrotation
              JOINT rThumb1
              {
                OFFSET -1.2192 -0.487915 3.41376
                CHANNELS 3 Zrotation Xrotation Yrotation
                JOINT rThumb2
                {
                  OFFSET -3.37035 -0.52449 3.41376
                  CHANNELS 3 Zrotation Xrotation Yrotation
                  End Site
                  {
                    OFFSET -1.78271 -1.18214 1.43049
                  }
                }
              }
              JOINT rIndex1
              {
                OFFSET -7.75947 0.938293 5.60832
                CHANNELS 3 Zrotation Xrotation Yrotation
                JOINT rIndex2
                {
                  OFFSET -2.54057 -0.884171 1.56538
                  CHANNELS 3 Zrotation Xrotation Yrotation
                  End Site
                  {
                    OFFSET -1.62519 -0.234802 1.16502
                  }
                }
              }
              JOINT rMid1
              {
                OFFSET -8.24714 1.18213 3.41376
                CHANNELS 3 Zrotation Xrotation Yrotation
                JOINT rMid2
                {
                  OFFSET -3.10165 -0.590103 1.0647
                  CHANNELS 3 Zrotation Xrotation Yrotation
                  End Site
                  {
                    OFFSET -2.48547 -0.328903 0.83742
                  }
                }
              }
              JOINT rRing1
              {
                OFFSET -8.82822 0.546677 1.51678
                CHANNELS 3 Zrotation Xrotation Yrotation
                JOINT rRing2
                {
                  OFFSET -2.60934 -0.819778 -0.0198488
                  CHANNELS 3 Zrotation Xrotation Yrotation
                  End Site
                  {
                    OFFSET -2.33842 -0.294052 0.168128
                  }
                }
              }
              JOINT rPinky1
              {
                OFFSET -8.27202 -0.0477905 -0.4584
                CHANNELS 3 Zrotation Xrotation Yrotation
                JOINT rPinky2
                {
                  OFFSET -1.82734 -0.647385 -0.700984
                  CHANNELS 3 Zrotation Xrotation Yrotation
                  End Site
                  {
                    OFFSET -1.69225 -0.51767 -0.607171
                  }
                }
              }
            }
          }
        }
      }
      JOINT lCollar
      {
        OFFSET 2.68224 19.2634 -4.8768
        CHANNELS 3 Zrotation Xrotation Yrotation
        JOINT lShldr
        {
          OFFSET 8.77824 -1.95073 1.46304
          CHANNELS 3 Zrotation Xrotation Yrotation
          JOINT lForeArm
          {
            OFFSET 28.1742 -1.7115 0.48768
            CHANNELS 3 Zrotation Xrotation Yrotation
            JOINT lHand
            {
              OFFSET 22.5879 0.773209 7.07136
              CHANNELS 3 Zrotation Xrotation Yrotation
              JOINT lThumb1
              {
                OFFSET 1.2192 -0.487915 3.41376
                CHANNELS 3 Zrotation Xrotation Yrotation
                JOINT lThumb2
                {
                  OFFSET 3.37035 -0.52449 3.41376
                  CHANNELS 3 Zrotation Xrotation Yrotation
                  End Site
                  {
                    OFFSET 1.78271 -1.18214 1.43049
                  }
                }
              }
              JOINT lIndex1
              {
                OFFSET 7.75947 0.938293 5.60832
                CHANNELS 3 Zrotation Xrotation Yrotation
                JOINT lIndex2
                {
                  OFFSET 2.54057 -0.884171 1.56538
                  CHANNELS 3 Zrotation Xrotation Yrotation
                  End Site
                  {
                    OFFSET 1.62519 -0.234802 1.16502
                  }
                }
              }
              JOINT lMid1
              {
                OFFSET 8.24714 1.18213 3.41376
                CHANNELS 3 Zrotation Xrotation Yrotation
                JOINT lMid2
                {
                  OFFSET 3.10165 -0.590103 1.0647
                  CHANNELS 3 Zrotation Xrotation Yrotation
                  End Site
                  {
                    OFFSET 2.48547 -0.328903 0.83742
                  }
                }
              }
              JOINT lRing1
              {
                OFFSET 8.82822 0.546677 1.51678
                CHANNELS 3 Zrotation Xrotation Yrotation
                JOINT lRing2
                {
                  OFFSET 2.60934 -0.819778 -0.0198488
                  CHANNELS 3 Zrotation Xrotation Yrotation
                  End Site
                  {
                    OFFSET 2.33842 -0.294052 0.168128
                  }
                }
              }
              JOINT lPinky1
              {
                OFFSET 8.27202 -0.0477905 -0.4584
                CHANNELS 3 Zrotation Xrotation Yrotation
                JOINT lPinky2
                {
                  OFFSET 1.82734 -0.647385 -0.700984
                  CHANNELS 3 Zrotation Xrotation Yrotation
                  End Site
                  {
                    OFFSET 1.69225 -0.51767 -0.607171
                  }
                }
              }
            }
          }
        }
      }
    }
  }
  JOINT rButtock
  {
    OFFSET -8.77824 4.35084 1.2192
    CHANNELS 3 Zrotation Xrotation Yrotation
    JOINT rThigh
    {
      OFFSET 0 -1.70687 -2.19456
      CHANNELS 3 Zrotation Xrotation Yrotation
      JOINT rShin
      {
        OFFSET 0 -36.8199 0.73152
        CHANNELS 3 Zrotation Xrotation Yrotation
        JOINT rFoot
        {
          OFFSET 0.73152 -45.1104 -5.12064
          CHANNELS 3 Zrotation Xrotation Yrotation
          End Site
          {
            OFFSET -1.1221 -3.69964 12.103
          }
        }
      }
    }
  }
  JOINT lButtock
  {
    OFFSET 8.77824 4.35084 1.2192
    CHANNELS 3 Zrotation Xrotation Yrotation
    JOINT lThigh
    {
      OFFSET 0 -1.70687 -2.19456
      CHANNELS 3 Zrotation Xrotation Yrotation
      JOINT lShin
      {
        OFFSET 0 -36.8199 0.73152
        CHANNELS 3 Zrotation Xrotation Yrotation
        JOINT lFoot
        {
          OFFSET -0.73152 -45.1104 -5.12064
          CHANNELS 3 Zrotation Xrotation Yrotation
          End Site
          {
            OFFSET 1.1221 -3.69964 12.103
          }
        }
      }
    }
  }
}
MOTION
Frames:	7
Frame Time:	0.03333
17.694399999999998 91.1074 101.70079999999999 -96.818435 37.511164 -93.384714 4.103128 31.447273 142.667887 -13.182766 -2.215296 -149.537302 -11.628429 34.031537 -141.658021 -9.191753 47.863305 122.488535 -0.002218 0.0 -0.003197 -0.002218 0.0 -0.003197 -142.973577 39.431316 147.389321 -129.336774 32.903359 99.170084 148.699204 -67.380955 66.139013 -178.455107 0.231457 143.097215 -85.829325 38.630912 47.955502 -119.450517 -15.516936 76.578718 88.792824 -75.498064 40.049831 -176.441692 -44.105267 109.588995 23.901997 -61.334162 1.39771 -168.227638 -19.44784 144.170967 -75.672631 -72.116986 -92.828666 14.033887 28.308142 -0.855073 26.965219 80.123225 10.144921 40.979078 80.709856 -5.504672 157.796413 -22.115347 -165.467926 -111.20768 25.1985 102.274795 -178.849297 -66.12867 -35.553401 171.881381 3.16796 -141.732568 -0.567401 -0.561641 0.084461 133.296353 -32.484304 -117.17418 -9.088031 -15.965369 4.19835 159.330096 -13.278178 -110.573297 160.574601 -6.359123 -143.198194 176.809062 -42.231865 -142.387912 145.118914 0.267874 179.212263 -12.115687 40.32544 4.41352 -0.096721 0.258737 -0.090863 40.191668 -49.988908 40.465868 0.006033 -0.000585 0.003017 -92.284962 -46.922827 87.936076 96.922622 -50.466528 -176.050434 12.944435 -71.133563 108.812646 0.003469 0.000505 0.001735 52.299875 -15.847674 -0.0 3.347415 22.537447 103.049636 89.411915 -71.473147 -23.683011
18.6015 88.6155 100.5363 -101.870417 39.200208 -99.703156 4.512828 37.101925 158.774042 -13.367623 3.816381 -168.76336 -17.289943 22.738203 -58.931741 42.731855 18.865968 24.341518 0.000518 0.0 0.002798 -0.001087 0.0 -0.001719 -142.314556 40.592613 146.688088 -25.902051 -1.341599 54.066423 -2.838824 -13.759627 -87.955507 177.417954 -16.396838 143.417607 -175.19774 -12.846248 89.808035 -39.87216 -22.13568 3.939624 -124.894761 21.791556 105.251 -23.586411 40.847298 10.007177 -169.088985 -33.247271 145.376227 -163.380079 -4.766538 142.98687 -0.015676 -1.323225 -0.41538 10.090182 4.608666 0.524165 -26.668406 -38.938746 -25.70875 -93.961679 -51.597598 -94.034768 -3.268465 -26.755809 5.242258 62.929972 22.584437 -140.450385 172.474343 74.011388 -34.314658 174.476361 -0.834832 -142.464249 0.491325 0.484837 -0.076731 126.026463 -19.828311 -112.413556 140.685851 1.506566 -116.183697 -143.356518 -66.566226 -86.986633 103.307796 58.657598 -94.183933 1.174023 12.644247 -2.397647 70.872132 -72.136907 87.795264 -12.05807 45.608816 -2.637988 -26.855378 80.011635 -10.216865 160.722854 52.404526 148.448244 -179.99641 75.749006 -0.002457 118.865759 -29.322939 -42.964031 -140.273315 32.883662 -59.628615 62.283971 17.088791 -178.475934 -179.987433 75.750083 -0.011089 -129.219064 26.769645 68.164318 37.64119 -14.004303 82.018092 -68.327732 -13.079113 178.784055
19.171599999999998 84.8343 99.5792 -108.299808 46.543833 -110.038746 7.743492 49.612488 -5.703927 10.013836 -15.801407 -8.385223 -16.699202 31.397557 -106.515743 29.561874 44.497818 67.786665 -0.001443 -0.0 6.9e-05 -0.003211 -0.0 0.003651 4.239023 -44.742776 -8.647827 34.330483 4.266438 -41.105173 101.088234 -8.552544 71.199172 -129.30818 63.028352 105.746425 0.594299 -0.588333 -0.088992 13.674838 -20.981464 -10.866008 -155.912338 -25.627983 122.277944 96.022098 -70.643061 42.088791 -153.321304 13.629539 138.863816 80.986767 -77.641023 52.466749 -145.099371 -1.522152 -178.650092 -155.409976 1.340944 -179.397877 0.098927 0.258635 0.089076 2.497524 0.046517 0.033845 155.504204 -3.51458 -161.838347 74.494063 -14.65796 55.804383 -167.946946 -75.676813 84.189047 10.461154 -0.103179 2.610081 121.364628 30.329188 -71.957426 114.635011 -7.208132 -63.268794 19.169858 24.114992 -13.380258 163.285237 -12.015964 -110.584699 8.307004 20.652306 -5.561293 7.239312 26.205862 -6.046968 145.100547 -1.522927 178.651661 -12.208046 36.395395 4.872047 -8.580351 27.211726 -7.533752 -0.906043 -2.863688 1.027389 179.966921 75.749489 0.022632 92.357422 -36.835079 2.236222 158.103413 31.65993 -91.275831 14.586118 -28.547754 -54.191156 -179.994602 75.75004 -0.003693 -137.188983 28.906353 52.53492 50.673432 -1.376401 86.766828 90.826717 57.508285 177.255224
19.5538 81.9056 99.9516 -105.747007 47.868684 -109.908893 12.627633 53.241277 -0.0 6.342531 -18.484672 -15.898328 -16.325518 31.665732 -106.827603 32.846402 43.244767 65.168536 0.001579 -0.0 -0.005119 -0.004275 -0.0 0.002826 -13.946515 42.750632 15.783663 -102.269636 17.381611 154.154718 61.38262 -25.969301 -67.525919 -159.889813 38.616476 132.752123 -2.608111 2.554737 0.457054 -122.370306 -15.081113 109.42689 5.692187 -9.761523 -2.868314 -36.66573 43.298548 27.997872 -0.572075 1.648139 0.322633 2.407554 2.450337 0.314438 0.003062 1.771617 0.555023 10.175662 0.207709 -0.037946 -140.0044 -2.493565 -137.11709 11.124431 24.70194 3.822412 -2.460459 -18.216256 3.669673 143.991409 -56.332041 -114.442664 -89.48985 -42.446693 108.204345 92.392653 63.910189 -70.263973 107.934312 35.149304 -63.317065 179.201369 -35.885199 -76.709425 -10.747079 -19.047974 4.725348 1.299569 19.750127 -4.43856 0.056623 0.168119 -0.031284 -3.164773 0.193783 0.001156 0.059111 -3.512065 1.105005 -8.867537 18.474255 -2.551767 -12.989512 44.344171 -10.760794 84.635876 -53.783564 83.396769 0.029726 0.000389 0.022295 -120.115361 -9.902074 115.157872 -165.408337 -11.561076 -91.919236 78.42365 -12.570096 -172.564682 -179.994741 75.749458 -0.005426 -139.341919 26.886319 117.768376 31.868373 -40.352765 -179.012469 125.106653 48.976526 -48.237834
19.9715 77.8989 101.4524 -104.920029 57.066845 -107.997394 5.895149 51.783867 -0.0 8.539439 -17.700081 -11.322247 4.880854 25.796119 93.417275 -38.482174 -8.389621 -131.193085 0.005196 0.0 0.004923 -0.001048 -0.0 4.5e-05 -158.468195 -30.055382 166.920425 -42.937129 3.253061 2.925188 -83.917729 -8.909381 177.949992 111.301742 -77.831875 92.259767 -67.033729 37.762823 34.644413 12.848437 -17.754352 19.581528 -150.566041 -15.701914 120.869563 -164.213874 -21.286136 119.459832 2.099922 -6.305375 -1.08249 -164.014458 -6.973292 143.565157 -145.120574 0.213128 -179.194791 11.197 13.760995 -7.375788 3.628212 10.317096 3.297791 9.323516 22.785867 5.530127 143.298393 38.837119 -147.736732 162.249757 85.952964 -98.032988 -177.796214 29.726836 63.311219 11.530442 4.541248 1.894312 155.113443 6.918135 -87.737965 -25.458761 -54.479742 -26.442021 151.351953 -17.158667 -121.13334 -165.18621 -59.249446 -103.593913 89.835182 60.703065 -81.263123 128.934075 51.95283 -118.315219 0.001232 0.063857 -0.019546 140.367044 60.45665 -154.515856 141.241125 0.67779 138.265377 21.145854 -36.854227 22.933393 -0.0 -0.001169 -4.9e-05 -123.85997 -30.294369 -29.870546 157.354882 -8.230266 104.324995 -147.751934 17.020119 175.919597 -179.999938 75.750811 -0.0 -141.914155 26.311783 119.492173 56.466252 -51.679998 41.932938 -76.034391 -35.556428 -170.048917
20.227999999999998 74.3895 103.56989999999999 -104.390341 63.817706 -105.5198 -1.302315 48.2835 0.936073 10.345642 -16.197331 -9.122438 -1.900075 17.86994 32.139362 -2.866055 -35.044613 -69.784588 0.002176 0.0 2.7e-05 0.002844 0.0 0.004679 -158.467174 -30.055421 166.920594 -158.588089 82.538617 120.101634 170.282268 -10.228941 60.605066 -172.236543 8.441174 141.196632 -3.030427 2.964081 0.541983 -128.798387 -25.802663 113.332448 -108.428599 34.161825 91.743136 -160.024516 -3.196758 115.670708 -39.289028 53.366286 32.877395 167.982251 -64.088476 132.989302 0.004787 1.770223 0.557666 -125.515426 71.526902 139.164852 0.099763 0.258096 0.091422 -9.592654 -25.34774 -10.913184 147.671188 29.084408 -152.474631 -126.617666 -16.857396 173.823048 7.600054 23.249782 -119.688054 5.51549 -13.412603 3.917849 -174.054435 -22.871108 -88.06284 22.533664 -42.255515 5.910747 -37.218037 -57.917075 0.641365 56.662038 51.598721 -46.699883 36.034454 51.723782 -29.831475 166.735333 -15.98308 -144.076886 145.118893 0.186075 179.185363 156.346849 12.495531 -179.295874 156.863128 55.54173 150.329543 172.110629 71.500647 143.380695 179.968541 75.749308 0.025884 132.690325 -39.304638 -0.0 155.487558 37.574981 -178.004069 -45.07426 -46.735344 44.823962 179.968541 75.749308 0.025884 -141.713236 26.359679 -18.555071 -10.285624 61.641457 -22.191856 120.908675 39.583806 -36.656686
20.326900000000002 71.3136 105.97019999999999 -106.137981 65.956584 -105.439293 0.040776 44.33545 2.48435 9.796366 -15.606943 -11.26541 -3.598889 17.893743 20.51219 4.632378 -35.357905 -57.806883 -0.003747 0.0 -0.002287 0.001818 -0.0 -0.002011 3.268224 -26.755859 -5.241884 63.812588 38.281612 -32.920616 51.136303 -35.143595 123.556023 -23.602589 34.52953 6.572521 -174.05288 -11.718438 89.877232 -35.511972 -26.478957 3.368145 -152.463463 -19.226992 121.472798 -62.021085 57.379026 46.123697 78.537579 -80.918947 49.68898 -11.91289 33.663832 9.447843 -145.119543 0.184562 -179.188289 12.075243 36.619608 -4.847523 26.755741 79.92277 10.283568 -24.300485 -39.555562 -24.339934 -3.269229 -26.755798 5.241632 42.975381 66.392293 -125.08946 5.989809 -47.231269 -107.538461 6.491675 -9.529398 3.596419 -51.060113 -41.203354 -12.857695 109.343404 32.389149 -82.969788 -37.21597 -57.917776 0.643945 23.048626 42.224793 -18.816778 125.644555 49.840276 -115.274429 163.175502 -5.006801 -143.103306 66.263137 72.869563 -83.835809 158.815807 -27.39521 -179.862132 25.536214 -38.087287 24.599768 -15.843591 42.785872 -8.19135 0.000844 -0.000759 -0.001085 -130.022792 -48.186505 57.957456 -157.80099 -46.39948 61.909395 -89.799771 23.036467 15.07032 0.000987 0.000516 -0.001269 50.358465 -37.211499 -32.53755 -68.271301 12.461701 48.01885 27.651825 16.784 49.901604
